<svg width="716" height="190" viewBox="0 0 716 190" fill="none" xmlns="http://www.w3.org/2000/svg">
<path d="M74.6237 67.4684C74.6237 96.5497 86.673 134.937 94.7058 134.937C102.738 134.937 114.788 100.039 114.788 67.4684C114.788 34.8975 100.061 0 94.7058 0C89.3506 0 74.6237 38.3873 74.6237 67.4684Z" fill="#30C150"/>
<path d="M140.17 90.6048C124.616 106.189 110.453 133.142 114.697 137.395C118.942 141.648 143.974 129.327 161.395 111.872C178.815 94.4167 189.697 67.9171 186.868 65.0815C184.037 62.246 155.724 75.0201 140.17 90.6048Z" fill="#30C150"/>
<path d="M50.3518 90.6048C65.9057 106.189 80.0693 133.142 75.8244 137.395C71.5795 141.648 46.5475 129.327 29.1273 111.872C11.7069 94.4167 0.824689 67.9171 3.65463 65.0815C6.48457 62.246 34.798 75.0201 50.3518 90.6048Z" fill="#30C150"/>
<path d="M148.405 134.263C131.339 138.054 110.314 149.853 111.316 154.382C112.318 158.911 134.302 161.157 153.416 156.91C172.531 152.664 191.173 139.811 190.504 136.791C189.837 133.772 165.471 130.472 148.405 134.263Z" fill="#30C150"/>
<path d="M42.1171 134.263C59.1836 138.054 80.2081 149.853 79.2059 154.382C78.2037 158.911 56.2207 161.157 37.1063 156.91C17.9918 152.664 -0.650685 139.811 0.0174359 136.791C0.685557 133.772 25.0507 130.472 42.1171 134.263Z" fill="#30C150"/>
<path d="M127.57 171.731C119.452 166.348 106.838 162.118 105.571 164.034C104.305 165.951 112.146 175.288 121.237 181.317C130.329 187.347 142.392 190.292 143.237 189.014C144.08 187.736 135.687 177.115 127.57 171.731Z" fill="#30C150"/>
<path d="M62.9524 171.731C71.0698 166.348 83.6844 162.118 84.9508 164.034C86.2173 165.951 78.3759 175.288 69.2843 181.317C60.1928 187.347 48.1301 190.292 47.2859 189.014C46.4416 187.736 54.8348 177.115 62.9524 171.731Z" fill="#30C150"/>
<path d="M235.46 155.344L215.691 86.9439H224.509L239.679 141.046L254.801 86.9914L263.666 86.9439L278.836 141.046L293.958 86.9439H302.823L283.055 155.344H274.617L259.257 101.716L243.898 155.344H235.46ZM327.441 156.769C322.416 156.769 318.023 155.661 314.262 153.444C310.533 151.196 307.625 148.076 305.539 144.086C303.453 140.065 302.41 135.378 302.41 130.026C302.41 124.421 303.438 119.576 305.492 115.491C307.546 111.375 310.406 108.208 314.072 105.991C317.77 103.743 322.1 102.619 327.061 102.619C332.213 102.619 336.59 103.806 340.193 106.181C343.827 108.556 346.545 111.945 348.347 116.346C350.18 120.748 350.97 125.989 350.717 132.069H342.184V129.029C342.089 122.727 340.809 118.025 338.344 114.921C335.879 111.786 332.213 110.219 327.346 110.219C322.131 110.219 318.165 111.897 315.447 115.254C312.729 118.611 311.37 123.424 311.37 129.694C311.37 135.742 312.729 140.429 315.447 143.754C318.165 147.079 322.036 148.741 327.061 148.741C330.443 148.741 333.382 147.966 335.879 146.414C338.376 144.862 340.335 142.63 341.757 139.716L349.864 142.519C347.873 147.047 344.87 150.562 340.857 153.064C336.874 155.534 332.403 156.769 327.441 156.769ZM308.526 132.069V125.276H346.356V132.069H308.526ZM383.458 156.769C378.433 156.769 374.04 155.661 370.279 153.444C366.549 151.196 363.642 148.076 361.556 144.086C359.47 140.065 358.427 135.378 358.427 130.026C358.427 124.421 359.454 119.576 361.509 115.491C363.563 111.375 366.423 108.208 370.089 105.991C373.787 103.743 378.117 102.619 383.078 102.619C388.23 102.619 392.607 103.806 396.21 106.181C399.844 108.556 402.562 111.945 404.363 116.346C406.197 120.748 406.987 125.989 406.734 132.069H398.201V129.029C398.106 122.727 396.826 118.025 394.361 114.921C391.896 111.786 388.23 110.219 383.363 110.219C378.148 110.219 374.182 111.897 371.464 115.254C368.746 118.611 367.387 123.424 367.387 129.694C367.387 135.742 368.746 140.429 371.464 143.754C374.182 147.079 378.053 148.741 383.078 148.741C386.46 148.741 389.399 147.966 391.896 146.414C394.392 144.862 396.352 142.63 397.774 139.716L405.88 142.519C403.889 147.047 400.887 150.562 396.873 153.064C392.891 155.534 388.419 156.769 383.458 156.769ZM364.543 132.069V125.276H402.372V132.069H364.543ZM417.288 155.344V86.9439H438.337C439.032 86.9439 440.249 86.9598 441.987 86.9914C443.725 87.0231 445.384 87.1498 446.965 87.3714C452.242 88.0681 456.651 89.9998 460.191 93.1664C463.762 96.3014 466.448 100.291 468.25 105.136C470.051 109.981 470.952 115.317 470.952 121.144C470.952 126.971 470.051 132.306 468.25 137.151C466.448 141.996 463.762 146.002 460.191 149.169C456.651 152.304 452.242 154.22 446.965 154.916C445.384 155.106 443.709 155.233 441.939 155.296C440.201 155.328 439 155.344 438.337 155.344H417.288ZM425.964 147.269H438.337C439.538 147.269 440.881 147.237 442.366 147.174C443.852 147.079 445.147 146.936 446.253 146.746C449.983 146.05 453.001 144.482 455.308 142.044C457.615 139.606 459.306 136.566 460.38 132.924C461.455 129.282 461.992 125.356 461.992 121.144C461.992 116.837 461.439 112.863 460.333 109.221C459.258 105.58 457.568 102.556 455.26 100.149C452.953 97.7423 449.951 96.2064 446.253 95.5414C445.147 95.3198 443.836 95.1773 442.319 95.1139C440.802 95.0506 439.474 95.0189 438.337 95.0189H425.964V147.269ZM504.009 156.769C498.984 156.769 494.592 155.661 490.831 153.444C487.101 151.196 484.194 148.076 482.108 144.086C480.022 140.065 478.979 135.378 478.979 130.026C478.979 124.421 480.006 119.576 482.061 115.491C484.115 111.375 486.975 108.208 490.641 105.991C494.339 103.743 498.668 102.619 503.63 102.619C508.782 102.619 513.159 103.806 516.762 106.181C520.396 108.556 523.114 111.945 524.915 116.346C526.748 120.748 527.539 125.989 527.286 132.069H518.753V129.029C518.658 122.727 517.378 118.025 514.913 114.921C512.448 111.786 508.782 110.219 503.915 110.219C498.7 110.219 494.734 111.897 492.016 115.254C489.298 118.611 487.939 123.424 487.939 129.694C487.939 135.742 489.298 140.429 492.016 143.754C494.734 147.079 498.605 148.741 503.63 148.741C507.012 148.741 509.951 147.966 512.448 146.414C514.944 144.862 516.904 142.63 518.326 139.716L526.432 142.519C524.441 147.047 521.439 150.562 517.425 153.064C513.443 155.534 508.971 156.769 504.009 156.769ZM485.095 132.069V125.276H522.924V132.069H485.095ZM538.788 155.344V85.5189H547.226V155.344H538.788ZM562.399 94.9714V86.2314H570.837V94.9714H562.399ZM562.399 155.344V104.044H570.837V155.344H562.399ZM598.903 155.344L580.32 104.044H588.853L603.217 144.561L617.533 104.044H626.114L607.531 155.344H598.903ZM655.023 156.769C649.998 156.769 645.605 155.661 641.844 153.444C638.115 151.196 635.207 148.076 633.121 144.086C631.035 140.065 629.992 135.378 629.992 130.026C629.992 124.421 631.019 119.576 633.074 115.491C635.128 111.375 637.988 108.208 641.654 105.991C645.352 103.743 649.681 102.619 654.643 102.619C659.795 102.619 664.172 103.806 667.775 106.181C671.409 108.556 674.127 111.945 675.928 116.346C677.761 120.748 678.552 125.989 678.299 132.069H669.766V129.029C669.671 122.727 668.391 118.025 665.926 114.921C663.461 111.786 659.795 110.219 654.928 110.219C649.713 110.219 645.747 111.897 643.029 115.254C640.311 118.611 638.952 123.424 638.952 129.694C638.952 135.742 640.311 140.429 643.029 143.754C645.747 147.079 649.618 148.741 654.643 148.741C658.025 148.741 660.964 147.966 663.461 146.414C665.958 144.862 667.917 142.63 669.339 139.716L677.445 142.519C675.454 147.047 672.452 150.562 668.438 153.064C664.456 155.534 659.984 156.769 655.023 156.769ZM636.108 132.069V125.276H673.937V132.069H636.108ZM688.854 155.344V104.044H696.391V116.441L695.158 114.826C695.759 113.243 696.533 111.786 697.481 110.456C698.461 109.126 699.551 108.034 700.752 107.179C702.08 106.102 703.581 105.279 705.256 104.709C706.931 104.139 708.638 103.806 710.376 103.711C712.114 103.585 713.742 103.696 715.258 104.044V111.976C713.489 111.501 711.545 111.375 709.428 111.596C707.31 111.818 705.351 112.594 703.549 113.924C701.906 115.096 700.626 116.521 699.709 118.199C698.824 119.877 698.208 121.698 697.861 123.661C697.513 125.593 697.339 127.572 697.339 129.599V155.344H688.854Z" fill="#30C150"/>
</svg>
