<svg width="191" height="190" viewBox="0 0 191 190" fill="none" xmlns="http://www.w3.org/2000/svg">
<path d="M74.6237 67.4684C74.6237 96.5497 86.673 134.937 94.7058 134.937C102.738 134.937 114.788 100.039 114.788 67.4684C114.788 34.8975 100.061 0 94.7058 0C89.3506 0 74.6237 38.3873 74.6237 67.4684Z" fill="#30C150"/>
<path d="M140.17 90.6048C124.616 106.189 110.453 133.142 114.697 137.395C118.942 141.648 143.974 129.327 161.395 111.872C178.815 94.4167 189.697 67.9171 186.868 65.0815C184.037 62.246 155.724 75.0201 140.17 90.6048Z" fill="#30C150"/>
<path d="M50.3518 90.6048C65.9057 106.189 80.0693 133.142 75.8244 137.395C71.5795 141.648 46.5475 129.327 29.1273 111.872C11.7069 94.4167 0.824689 67.9171 3.65463 65.0815C6.48457 62.246 34.798 75.0201 50.3518 90.6048Z" fill="#30C150"/>
<path d="M148.405 134.263C131.339 138.054 110.314 149.853 111.316 154.382C112.318 158.911 134.302 161.157 153.416 156.91C172.531 152.664 191.173 139.811 190.504 136.791C189.837 133.772 165.471 130.472 148.405 134.263Z" fill="#30C150"/>
<path d="M42.1171 134.263C59.1836 138.054 80.2081 149.853 79.2059 154.382C78.2037 158.911 56.2207 161.157 37.1063 156.91C17.9918 152.664 -0.650685 139.811 0.0174359 136.791C0.685557 133.772 25.0507 130.472 42.1171 134.263Z" fill="#30C150"/>
<path d="M127.57 171.731C119.452 166.348 106.838 162.118 105.571 164.034C104.305 165.951 112.146 175.288 121.237 181.318C130.329 187.347 142.392 190.292 143.237 189.014C144.08 187.736 135.687 177.115 127.57 171.731Z" fill="#30C150"/>
<path d="M62.9524 171.731C71.0698 166.348 83.6844 162.118 84.9508 164.034C86.2173 165.951 78.3759 175.288 69.2843 181.318C60.1928 187.347 48.1301 190.292 47.2859 189.014C46.4416 187.736 54.8348 177.115 62.9524 171.731Z" fill="#30C150"/>
</svg>
