<svg width="25" height="25" viewBox="0 0 25 25" fill="none" xmlns="http://www.w3.org/2000/svg">
<mask id="mask0_145_171" style="mask-type:alpha" maskUnits="userSpaceOnUse" x="0" y="0" width="25" height="25">
<rect x="0.732422" y="0.372559" width="24" height="24" fill="#D9D9D9"/>
</mask>
<g mask="url(#mask0_145_171)">
<path d="M22.7324 6.37256V18.3726C22.7324 18.9226 22.5366 19.3934 22.1449 19.7851C21.7533 20.1767 21.2824 20.3726 20.7324 20.3726H4.73242C4.18242 20.3726 3.71159 20.1767 3.31992 19.7851C2.92826 19.3934 2.73242 18.9226 2.73242 18.3726V6.37256C2.73242 5.82256 2.92826 5.35173 3.31992 4.96006C3.71159 4.56839 4.18242 4.37256 4.73242 4.37256H20.7324C21.2824 4.37256 21.7533 4.56839 22.1449 4.96006C22.5366 5.35173 22.7324 5.82256 22.7324 6.37256ZM4.73242 8.37256H20.7324V6.37256H4.73242V8.37256ZM4.73242 12.3726V18.3726H20.7324V12.3726H4.73242Z" fill="white"/>
</g>
</svg>
