<svg width="34" height="34" viewBox="0 0 34 34" fill="none" xmlns="http://www.w3.org/2000/svg">
<mask id="mask0_224_2" style="mask-type:alpha" maskUnits="userSpaceOnUse" x="0" y="0" width="34" height="34">
<rect width="34" height="34" fill="#D9D9D9"/>
</mask>
<g mask="url(#mask0_224_2)">
<path d="M10.1346 30.54C9.44625 30.54 8.86098 30.2989 8.37877 29.8167C7.89656 29.3345 7.65545 28.7492 7.65545 28.0608C7.65545 27.3725 7.89656 26.7872 8.37877 26.305C8.86098 25.8228 9.44625 25.5817 10.1346 25.5817C10.8229 25.5817 11.4082 25.8228 11.8904 26.305C12.3726 26.7872 12.6138 27.3725 12.6138 28.0608C12.6138 28.7492 12.3726 29.3345 11.8904 29.8167C11.4082 30.2989 10.8229 30.54 10.1346 30.54ZM23.8653 30.54C23.177 30.54 22.5917 30.2989 22.1095 29.8167C21.6273 29.3345 21.3862 28.7492 21.3862 28.0608C21.3862 27.3725 21.6273 26.7872 22.1095 26.305C22.5917 25.8228 23.177 25.5817 23.8653 25.5817C24.5537 25.5817 25.139 25.8228 25.6212 26.305C26.1034 26.7872 26.3445 27.3725 26.3445 28.0608C26.3445 28.7492 26.1034 29.3345 25.6212 29.8167C25.139 30.2989 24.5537 30.54 23.8653 30.54ZM8.52175 8.1458L12.1125 15.665H21.7703C21.8521 15.665 21.9247 15.6446 21.9883 15.6037C22.0518 15.5629 22.1063 15.5061 22.1517 15.4335L25.9522 8.5272C26.0067 8.4273 26.0112 8.33876 25.9658 8.26157C25.9204 8.18437 25.8432 8.14576 25.7342 8.14576L8.52175 8.1458ZM7.50284 6.02087H27.1727C27.752 6.02087 28.1902 6.26742 28.4872 6.76051C28.7841 7.25363 28.7982 7.75718 28.5294 8.27117L23.9906 16.4932C23.7582 16.9018 23.4507 17.2202 23.0684 17.4481C22.6861 17.676 22.267 17.79 21.8112 17.79H11.475L9.83489 20.7868C9.76224 20.8958 9.75997 21.0138 9.82809 21.141C9.89621 21.2681 9.99837 21.3317 10.1346 21.3317H26.3445V23.4566H10.1346C9.19016 23.4566 8.48047 23.0494 8.00551 22.2348C7.53058 21.4202 7.51378 20.607 7.95511 19.7952L9.97663 16.1608L4.82212 5.31243H2.125V3.1875H6.15701L7.50284 6.02087Z" fill="white"/>
</g>
</svg>
