<svg width="25" height="25" viewBox="0 0 25 25" fill="none" xmlns="http://www.w3.org/2000/svg">
<mask id="mask0_273_7" style="mask-type:alpha" maskUnits="userSpaceOnUse" x="0" y="0" width="25" height="25">
<rect x="0.242188" y="0.0810547" width="24" height="24" fill="#D9D9D9"/>
</mask>
<g mask="url(#mask0_273_7)">
<path d="M7.24219 21.0811C6.69219 21.0811 6.22135 20.8852 5.82969 20.4936C5.43802 20.1019 5.24219 19.6311 5.24219 19.0811V6.08105H4.24219V4.08105H9.24219V3.08105H15.2422V4.08105H20.2422V6.08105H19.2422V19.0811C19.2422 19.6311 19.0464 20.1019 18.6547 20.4936C18.263 20.8852 17.7922 21.0811 17.2422 21.0811H7.24219ZM17.2422 6.08105H7.24219V19.0811H17.2422V6.08105ZM9.24219 17.0811H11.2422V8.08105H9.24219V17.0811ZM13.2422 17.0811H15.2422V8.08105H13.2422V17.0811Z" fill="black"/>
</g>
</svg>
